{
  "source": "C:\\Users\\Peter\\Desktop\\stuff\\MIUN\\quantitative_research\\video_compression\\videos\\BVI-HD\\BVI-HD_CDVL_videos\\ORIG\\PlasmaSlowRandom_1920x1080_60fps.mp4",
  "output": "C:\\Users\\Peter\\Desktop\\stuff\\MIUN\\quantitative_research\\video_compression\\compressed_videos\\BVI-HD\\hevc\\1.5\\PlasmaSlowRandom_1920x1080_60fps_hevc.mp4",
  "codec": "hevc",
  "ok": "Input #0, mov,mp4,m4a,3gp,3g2,mj2, from 'C:\\Users\\Peter\\Desktop\\stuff\\MIUN\\quantitative_research\\video_compression\\videos\\BVI-HD\\BVI-HD_CDVL_videos\\ORIG\\PlasmaSlowRandom_1920x1080_60fps.mp4':\n  Metadata:\n    major_brand     : isom\n    minor_version   : 512\n    compatible_brands: isomiso2avc1mp41\n    encoder         : Lavf54.28.101\n  Duration: 00:00:05.00, start: 0.000000, bitrate: 23030 kb/s\n  Stream #0:0[0x1](und): Video: h264 (High 4:4:4 Predictive) (avc1 / 0x31637661), yuv420p(progressive), 1920x1080, 23026 kb/s, 60 fps, 60 tbr, 60 tbn (default)\n    Metadata:\n      handler_name    : VideoHandler\n      vendor_id       : [0][0][0][0]\n[out#0/mp4 @ 0000021cd89e1000] Codec AVOption b:a (set bitrate (in bits/s)) has not been used for any stream. The most likely reason is either wrong type (e.g. a video option with no video streams) or that it is a private option of some decoder which was not actually used for any stream.\nStream mapping:\n  Stream #0:0 -> #0:0 (h264 (native) -> hevc (libx265))\nPress [q] to stop, [?] for help\n[libx265 @ 0000021cd8f9d540] Unknown option: \"aq-mode.\nx265 [info]: HEVC encoder version 4.1+190-8f11c33ac\nx265 [info]: build info [Windows][GCC 15.1.0][64 bit] 10bit\nx265 [info]: using cpu capabilities: MMX2 SSE2Fast LZCNT SSSE3 SSE4.2 AVX FMA3 BMI2 AVX2\nx265 [info]: Main 10 profile, Level-4.1 (Main tier)\nx265 [info]: Thread pool created using 12 threads\nx265 [info]: Slices                              : 1\nx265 [info]: frame threads / pool features       : 3 / wpp(17 rows)\nx265 [info]: Coding QT: max CU size, min CU size : 64 / 8\nx265 [info]: Residual QT: max TU size, max depth : 32 / 1 inter / 1 intra\nx265 [info]: ME / range / subpel / merge         : star / 57 / 3 / 3\nx265 [info]: Keyframe min / max / scenecut / bias  : 25 / 250 / 40 / 5.00 \nx265 [info]: Lookahead / bframes / badapt        : 25 / 4 / 2\nx265 [info]: b-pyramid / weightp / weightb       : 1 / 1 / 0\nx265 [info]: References / ref-limit  cu / depth  : 4 / on / on\nx265 [info]: AQ: mode / str / qg-size / cu-tree  : 2 / 1.0 / 32 / 1\nx265 [info]: Rate Control / qCompress            : ABR-1500 kbps / 0.60\nx265 [info]: VBV/HRD buffer / max-rate / init    : 1500 / 1500 / 0.750\nx265 [info]: tools: rect limit-modes rd=4 psy-rd=2.00 rdoq=2 psy-rdoq=1.00\nx265 [info]: tools: rskip mode=1 signhide tmvp strong-intra-smoothing lslices=4\nx265 [info]: tools: deblock sao dhdr10-info\nOutput #0, mp4, to 'C:\\Users\\Peter\\Desktop\\stuff\\MIUN\\quantitative_research\\video_compression\\compressed_videos\\BVI-HD\\hevc\\1.5\\PlasmaSlowRandom_1920x1080_60fps_hevc.mp4':\n  Metadata:\n    major_brand     : isom\n    minor_version   : 512\n    compatible_brands: isomiso2avc1mp41\n    encoder         : Lavf62.3.100\n  Stream #0:0(und): Video: hevc (hev1 / 0x31766568), yuv420p10le(tv, progressive), 1920x1080, q=2-31, 1500 kb/s, 60 fps, 15360 tbn (default)\n    Metadata:\n      encoder         : Lavc62.11.100 libx265\n      handler_name    : VideoHandler\n      vendor_id       : [0][0][0][0]\n    Side data:\n      cpb: bitrate max/min/avg: 1500000/0/1500000 buffer size: 1500000 vbv_delay: N/A\nframe=    0 fps=0.0 q=0.0 size=       0KiB time=N/A bitrate=N/A speed=N/A elapsed=0:00:00.52    \nframe=    0 fps=0.0 q=0.0 size=       0KiB time=N/A bitrate=N/A speed=N/A elapsed=0:00:01.04    \nframe=    0 fps=0.0 q=0.0 size=       0KiB time=N/A bitrate=N/A speed=N/A elapsed=0:00:01.56    \nframe=    0 fps=0.0 q=0.0 size=       0KiB time=N/A bitrate=N/A speed=N/A elapsed=0:00:02.10    \nframe=    0 fps=0.0 q=0.0 size=       0KiB time=N/A bitrate=N/A speed=N/A elapsed=0:00:02.61    \nframe=    0 fps=0.0 q=0.0 size=       0KiB time=N/A bitrate=N/A speed=N/A elapsed=0:00:03.12    \nframe=    1 fps=0.3 q=43.7 size=       0KiB time=-00:00:00.01 bitrate=N/A speed=N/A elapsed=0:00:03.64    \nframe=    2 fps=0.5 q=46.2 size=       0KiB time=00:00:00.00 bitrate=N/A speed=   0x elapsed=0:00:04.16    \nframe=    3 fps=0.6 q=42.2 size=       0KiB time=00:00:00.01 bitrate=  21.1kbits/s speed=0.00356x elapsed=0:00:04.68    \nframe=    4 fps=0.8 q=42.3 size=       0KiB time=00:00:00.03 bitrate=  10.6kbits/s speed=0.0064x elapsed=0:00:05.20    \nframe=    5 fps=0.9 q=42.6 size=       0KiB time=00:00:00.05 bitrate=   7.0kbits/s speed=0.00873x elapsed=0:00:05.72    \nframe=    5 fps=0.8 q=42.6 size=       0KiB time=00:00:00.05 bitrate=   7.0kbits/s speed=0.008x elapsed=0:00:06.24    \nframe=    6 fps=0.9 q=41.7 size=       0KiB time=00:00:00.06 bitrate=   5.3kbits/s speed=0.00985x elapsed=0:00:06.76    \nframe=    7 fps=1.0 q=40.2 size=       0KiB time=00:00:00.08 bitrate=   4.2kbits/s speed=0.0114x elapsed=0:00:07.28    \nframe=    7 fps=0.9 q=40.2 size=       0KiB time=00:00:00.08 bitrate=   4.2kbits/s speed=0.0107x elapsed=0:00:07.80    \nframe=    8 fps=1.0 q=40.5 size=       0KiB time=00:00:00.10 bitrate=   3.5kbits/s speed=0.012x elapsed=0:00:08.31    \nframe=   10 fps=1.1 q=36.5 size=       0KiB time=00:00:00.13 bitrate=   2.6kbits/s speed=0.0151x elapsed=0:00:08.83    \nframe=   11 fps=1.2 q=35.7 size=       0KiB time=00:00:00.15 bitrate=   2.3kbits/s speed=0.016x elapsed=0:00:09.37    \nframe=   12 fps=1.2 q=34.9 size=       0KiB time=00:00:00.16 bitrate=   2.1kbits/s speed=0.0168x elapsed=0:00:09.90    \nframe=   13 fps=1.2 q=30.8 size=       0KiB time=00:00:00.18 bitrate=   1.9kbits/s speed=0.0176x elapsed=0:00:10.44    \nframe=   15 fps=1.4 q=34.8 size=       0KiB time=00:00:00.21 bitrate=   1.6kbits/s speed=0.0197x elapsed=0:00:10.98    \nframe=   16 fps=1.4 q=34.3 size=       0KiB time=00:00:00.23 bitrate=   1.5kbits/s speed=0.0203x elapsed=0:00:11.51    \nframe=   17 fps=1.4 q=32.4 size=       0KiB time=00:00:00.25 bitrate=   1.4kbits/s speed=0.0208x elapsed=0:00:12.03    \nframe=   19 fps=1.5 q=34.4 size=       0KiB time=00:00:00.28 bitrate=   1.2kbits/s speed=0.0226x elapsed=0:00:12.55    \nframe=   19 fps=1.5 q=34.4 size=       0KiB time=00:00:00.28 bitrate=   1.2kbits/s speed=0.0217x elapsed=0:00:13.07    \nframe=   20 fps=1.5 q=33.4 size=       0KiB time=00:00:00.30 bitrate=   1.2kbits/s speed=0.0221x elapsed=0:00:13.57    \nframe=   23 fps=1.6 q=33.4 size=       0KiB time=00:00:00.35 bitrate=   1.0kbits/s speed=0.0248x elapsed=0:00:14.10    \nframe=   24 fps=1.6 q=32.4 size=       0KiB time=00:00:00.36 bitrate=   1.0kbits/s speed=0.0251x elapsed=0:00:14.62    \nframe=   25 fps=1.7 q=32.4 size=       0KiB time=00:00:00.38 bitrate=   0.9kbits/s speed=0.0253x elapsed=0:00:15.12    \nframe=   26 fps=1.7 q=29.7 size=       0KiB time=00:00:00.40 bitrate=   0.9kbits/s speed=0.0256x elapsed=0:00:15.64    \nframe=   27 fps=1.7 q=32.3 size=       0KiB time=00:00:00.41 bitrate=   0.8kbits/s speed=0.0258x elapsed=0:00:16.16    \nframe=   29 fps=1.7 q=32.2 size=       0KiB time=00:00:00.45 bitrate=   0.8kbits/s speed=0.027x elapsed=0:00:16.67    \nframe=   29 fps=1.7 q=32.2 size=       0KiB time=00:00:00.45 bitrate=   0.8kbits/s speed=0.0262x elapsed=0:00:17.19    \nframe=   31 fps=1.8 q=32.4 size=       0KiB time=00:00:00.48 bitrate=   0.7kbits/s speed=0.0273x elapsed=0:00:17.70    \nframe=   32 fps=1.8 q=32.4 size=       0KiB time=00:00:00.50 bitrate=   0.7kbits/s speed=0.0274x elapsed=0:00:18.22    \nframe=   32 fps=1.7 q=32.4 size=       0KiB time=00:00:00.50 bitrate=   0.7kbits/s speed=0.0267x elapsed=0:00:18.74    \nframe=   34 fps=1.8 q=31.3 size=       0KiB time=00:00:00.53 bitrate=   0.7kbits/s speed=0.0277x elapsed=0:00:19.25    \nframe=   35 fps=1.8 q=32.5 size=       0KiB time=00:00:00.55 bitrate=   0.6kbits/s speed=0.0278x elapsed=0:00:19.77    \nframe=   36 fps=1.8 q=32.5 size=       0KiB time=00:00:00.56 bitrate=   0.6kbits/s speed=0.0279x elapsed=0:00:20.30    \nframe=   37 fps=1.8 q=28.9 size=       0KiB time=00:00:00.58 bitrate=   0.6kbits/s speed=0.028x elapsed=0:00:20.85    \nframe=   37 fps=1.7 q=28.9 size=       0KiB time=00:00:00.58 bitrate=   0.6kbits/s speed=0.0273x elapsed=0:00:21.37    \nframe=   38 fps=1.7 q=32.5 size=       0KiB time=00:00:00.60 bitrate=   0.6kbits/s speed=0.0274x elapsed=0:00:21.91    \nframe=   40 fps=1.8 q=31.2 size=       0KiB time=00:00:00.63 bitrate=   0.6kbits/s speed=0.0282x elapsed=0:00:22.44    \nframe=   42 fps=1.8 q=32.5 size=       0KiB time=00:00:00.66 bitrate=   0.5kbits/s speed=0.029x elapsed=0:00:22.96    \nframe=   43 fps=1.8 q=32.5 size=       0KiB time=00:00:00.68 bitrate=   0.5kbits/s speed=0.0291x elapsed=0:00:23.47    \nframe=   43 fps=1.8 q=32.5 size=       0KiB time=00:00:00.68 bitrate=   0.5kbits/s speed=0.0285x elapsed=0:00:23.98    \nframe=   44 fps=1.8 q=30.3 size=       0KiB time=00:00:00.70 bitrate=   0.5kbits/s speed=0.0286x elapsed=0:00:24.51    \nframe=   45 fps=1.8 q=31.2 size=       0KiB time=00:00:00.71 bitrate=   0.5kbits/s speed=0.0286x elapsed=0:00:25.02    \nframe=   46 fps=1.8 q=32.5 size=       0KiB time=00:00:00.73 bitrate=   0.5kbits/s speed=0.0287x elapsed=0:00:25.53    \nframe=   48 fps=1.8 q=32.3 size=       0KiB time=00:00:00.76 bitrate=   0.5kbits/s speed=0.0294x elapsed=0:00:26.04    \nframe=   50 fps=1.9 q=33.5 size=       0KiB time=00:00:00.80 bitrate=   0.4kbits/s speed=0.0301x elapsed=0:00:26.56    \nframe=   50 fps=1.8 q=33.5 size=       0KiB time=00:00:00.80 bitrate=   0.4kbits/s speed=0.0295x elapsed=0:00:27.08    \nframe=   52 fps=1.9 q=30.9 size=       0KiB time=00:00:00.83 bitrate=   0.4kbits/s speed=0.0302x elapsed=0:00:27.59    \nframe=   53 fps=1.9 q=32.6 size=       0KiB time=00:00:00.85 bitrate=   0.4kbits/s speed=0.0302x elapsed=0:00:28.11    \nframe=   53 fps=1.9 q=32.6 size=       0KiB time=00:00:00.85 bitrate=   0.4kbits/s speed=0.0297x elapsed=0:00:28.63    \nframe=   54 fps=1.9 q=33.5 size=       0KiB time=00:00:00.86 bitrate=   0.4kbits/s speed=0.0297x elapsed=0:00:29.15    \nframe=   55 fps=1.9 q=33.6 size=       0KiB time=00:00:00.88 bitrate=   0.4kbits/s speed=0.0298x elapsed=0:00:29.67    \nframe=   56 fps=1.9 q=33.6 size=       0KiB time=00:00:00.90 bitrate=   0.4kbits/s speed=0.0298x elapsed=0:00:30.19    \nframe=   57 fps=1.9 q=31.2 size=       0KiB time=00:00:00.91 bitrate=   0.4kbits/s speed=0.0298x elapsed=0:00:30.71    \nframe=   58 fps=1.9 q=32.6 size=       0KiB time=00:00:00.93 bitrate=   0.4kbits/s speed=0.0299x elapsed=0:00:31.22    \nframe=   59 fps=1.9 q=33.6 size=       0KiB time=00:00:00.95 bitrate=   0.4kbits/s speed=0.0299x elapsed=0:00:31.76    \nframe=   60 fps=1.9 q=33.6 size=       0KiB time=00:00:00.96 bitrate=   0.4kbits/s speed=0.0299x elapsed=0:00:32.30    \nframe=   61 fps=1.9 q=33.6 size=       0KiB time=00:00:00.98 bitrate=   0.4kbits/s speed=0.03x elapsed=0:00:32.81    \nframe=   62 fps=1.9 q=30.8 size=       0KiB time=00:00:01.00 bitrate=   0.4kbits/s speed=0.03x elapsed=0:00:33.33    \nframe=   63 fps=1.9 q=32.5 size=       0KiB time=00:00:01.01 bitrate=   0.3kbits/s speed=0.03x elapsed=0:00:33.85    \nframe=   64 fps=1.9 q=33.7 size=       0KiB time=00:00:01.03 bitrate=   0.3kbits/s speed=0.0301x elapsed=0:00:34.35    \nframe=   65 fps=1.9 q=31.5 size=       0KiB time=00:00:01.05 bitrate=   0.3kbits/s speed=0.0301x elapsed=0:00:34.87    \nframe=   66 fps=1.9 q=32.7 size=       0KiB time=00:00:01.06 bitrate=   0.3kbits/s speed=0.0301x elapsed=0:00:35.39    \nframe=   68 fps=1.9 q=33.7 size=       0KiB time=00:00:01.10 bitrate=   0.3kbits/s speed=0.0306x elapsed=0:00:35.91    \nframe=   69 fps=1.9 q=34.6 size=       0KiB time=00:00:01.11 bitrate=   0.3kbits/s speed=0.0306x elapsed=0:00:36.44    \nframe=   71 fps=1.9 q=32.4 size=       0KiB time=00:00:01.15 bitrate=   0.3kbits/s speed=0.0311x elapsed=0:00:36.95    \nframe=   72 fps=1.9 q=34.6 size=       0KiB time=00:00:01.16 bitrate=   0.3kbits/s speed=0.0311x elapsed=0:00:37.50    \nframe=   72 fps=1.9 q=34.6 size=       0KiB time=00:00:01.16 bitrate=   0.3kbits/s speed=0.0307x elapsed=0:00:38.01    \nframe=   73 fps=1.9 q=34.7 size=       0KiB time=00:00:01.18 bitrate=   0.3kbits/s speed=0.0307x elapsed=0:00:38.54    \nframe=   74 fps=1.9 q=33.7 size=       0KiB time=00:00:01.20 bitrate=   0.3kbits/s speed=0.0307x elapsed=0:00:39.05    \nframe=   75 fps=1.9 q=31.2 size=       0KiB time=00:00:01.21 bitrate=   0.3kbits/s speed=0.0307x elapsed=0:00:39.60    \nframe=   77 fps=1.9 q=33.7 size=       0KiB time=00:00:01.25 bitrate=   0.3kbits/s speed=0.0312x elapsed=0:00:40.12    \nframe=   78 fps=1.9 q=33.7 size=       0KiB time=00:00:01.26 bitrate=   0.3kbits/s speed=0.0312x elapsed=0:00:40.64    \nframe=   78 fps=1.9 q=33.7 size=       0KiB time=00:00:01.26 bitrate=   0.3kbits/s speed=0.0308x elapsed=0:00:41.17    \nframe=   79 fps=1.9 q=33.6 size=       0KiB time=00:00:01.28 bitrate=   0.3kbits/s speed=0.0308x elapsed=0:00:41.69    \nframe=   80 fps=1.9 q=31.2 size=       0KiB time=00:00:01.30 bitrate=   0.3kbits/s speed=0.0308x elapsed=0:00:42.21    \nframe=   81 fps=1.9 q=32.5 size=       0KiB time=00:00:01.31 bitrate=   0.3kbits/s speed=0.0308x elapsed=0:00:42.74    \nframe=   81 fps=1.9 q=32.5 size=       0KiB time=00:00:01.31 bitrate=   0.3kbits/s speed=0.0304x elapsed=0:00:43.29    \nframe=   81 fps=1.8 q=32.5 size=       0KiB time=00:00:01.31 bitrate=   0.3kbits/s speed=0.0301x elapsed=0:00:43.81    \nframe=   82 fps=1.8 q=33.6 size=       0KiB time=00:00:01.33 bitrate=   0.3kbits/s speed=0.0301x elapsed=0:00:44.33    \nframe=   82 fps=1.8 q=33.6 size=       0KiB time=00:00:01.33 bitrate=   0.3kbits/s speed=0.0297x elapsed=0:00:44.87    \nframe=   83 fps=1.8 q=32.1 size=       0KiB time=00:00:01.35 bitrate=   0.3kbits/s speed=0.0297x elapsed=0:00:45.41    \nframe=   85 fps=1.9 q=34.6 size=       0KiB time=00:00:01.38 bitrate=   0.3kbits/s speed=0.0301x elapsed=0:00:45.93    \nframe=   85 fps=1.8 q=34.6 size=       0KiB time=00:00:01.38 bitrate=   0.3kbits/s speed=0.0298x elapsed=0:00:46.45    \nframe=   86 fps=1.8 q=34.5 size=       0KiB time=00:00:01.40 bitrate=   0.3kbits/s speed=0.0298x elapsed=0:00:46.97    \nframe=   87 fps=1.8 q=34.6 size=       0KiB time=00:00:01.41 bitrate=   0.2kbits/s speed=0.0298x elapsed=0:00:47.49    \nframe=   88 fps=1.8 q=31.9 size=     256KiB time=00:00:01.43 bitrate=1463.4kbits/s speed=0.0299x elapsed=0:00:48.00    \nframe=   90 fps=1.9 q=34.5 size=     256KiB time=00:00:01.46 bitrate=1430.1kbits/s speed=0.0302x elapsed=0:00:48.52    \nframe=   91 fps=1.9 q=31.3 size=     256KiB time=00:00:01.48 bitrate=1414.0kbits/s speed=0.0303x elapsed=0:00:49.03    \nframe=   92 fps=1.9 q=33.4 size=     256KiB time=00:00:01.50 bitrate=1398.3kbits/s speed=0.0303x elapsed=0:00:49.54    \nframe=   94 fps=1.9 q=34.4 size=     256KiB time=00:00:01.53 bitrate=1367.9kbits/s speed=0.0306x elapsed=0:00:50.07    \nframe=   94 fps=1.9 q=34.4 size=     256KiB time=00:00:01.53 bitrate=1367.9kbits/s speed=0.0303x elapsed=0:00:50.58    \nframe=   95 fps=1.9 q=34.4 size=     256KiB time=00:00:01.55 bitrate=1353.2kbits/s speed=0.0303x elapsed=0:00:51.09    \nframe=   96 fps=1.9 q=31.2 size=     256KiB time=00:00:01.56 bitrate=1338.8kbits/s speed=0.0303x elapsed=0:00:51.62    \nframe=   97 fps=1.9 q=32.7 size=     256KiB time=00:00:01.58 bitrate=1324.7kbits/s speed=0.0304x elapsed=0:00:52.14    \nframe=   98 fps=1.9 q=34.4 size=     256KiB time=00:00:01.60 bitrate=1310.9kbits/s speed=0.0304x elapsed=0:00:52.66    \nframe=   99 fps=1.9 q=34.3 size=     256KiB time=00:00:01.61 bitrate=1297.4kbits/s speed=0.0304x elapsed=0:00:53.18    \nframe=  100 fps=1.9 q=34.4 size=     256KiB time=00:00:01.63 bitrate=1284.2kbits/s speed=0.0304x elapsed=0:00:53.68    \nframe=  102 fps=1.9 q=33.0 size=     256KiB time=00:00:01.65 bitrate=1271.2kbits/s speed=0.0304x elapsed=0:00:54.21    \nframe=  103 fps=1.9 q=34.3 size=     256KiB time=00:00:01.68 bitrate=1246.0kbits/s speed=0.0307x elapsed=0:00:54.77    \nframe=  104 fps=1.9 q=34.3 size=     256KiB time=00:00:01.70 bitrate=1233.8kbits/s speed=0.0308x elapsed=0:00:55.28    \nframe=  105 fps=1.9 q=34.3 size=     256KiB time=00:00:01.71 bitrate=1221.8kbits/s speed=0.0308x elapsed=0:00:55.80    \nframe=  106 fps=1.9 q=31.6 size=     256KiB time=00:00:01.73 bitrate=1210.1kbits/s speed=0.0308x elapsed=0:00:56.32    \nframe=  107 fps=1.9 q=32.9 size=     256KiB time=00:00:01.75 bitrate=1198.6kbits/s speed=0.0308x elapsed=0:00:56.84    \nframe=  109 fps=1.9 q=31.9 size=     256KiB time=00:00:01.78 bitrate=1176.2kbits/s speed=0.0311x elapsed=0:00:57.36    \nframe=  111 fps=1.9 q=34.3 size=     256KiB time=00:00:01.81 bitrate=1154.6kbits/s speed=0.0314x elapsed=0:00:57.87    \nframe=  111 fps=1.9 q=34.3 size=     256KiB time=00:00:01.81 bitrate=1154.6kbits/s speed=0.0311x elapsed=0:00:58.39    \nframe=  113 fps=1.9 q=34.5 size=     256KiB time=00:00:01.85 bitrate=1133.8kbits/s speed=0.0314x elapsed=0:00:58.91    \nframe=  114 fps=1.9 q=31.8 size=     256KiB time=00:00:01.86 bitrate=1123.7kbits/s speed=0.0314x elapsed=0:00:59.44    \nframe=  115 fps=1.9 q=33.0 size=     256KiB time=00:00:01.88 bitrate=1113.7kbits/s speed=0.0314x elapsed=0:00:59.96    \nframe=  116 fps=1.9 q=34.3 size=     256KiB time=00:00:01.90 bitrate=1103.9kbits/s speed=0.0314x elapsed=0:01:00.49    \nframe=  117 fps=1.9 q=31.7 size=     256KiB time=00:00:01.91 bitrate=1094.3kbits/s speed=0.0314x elapsed=0:01:01.00    \nframe=  117 fps=1.9 q=31.7 size=     256KiB time=00:00:01.91 bitrate=1094.3kbits/s speed=0.0312x elapsed=0:01:01.52    \nframe=  118 fps=1.9 q=33.2 size=     256KiB time=00:00:01.93 bitrate=1084.9kbits/s speed=0.0312x elapsed=0:01:02.05    \nframe=  120 fps=1.9 q=34.4 size=     256KiB time=00:00:01.96 bitrate=1066.5kbits/s speed=0.0314x elapsed=0:01:02.57    \nframe=  122 fps=1.9 q=34.4 size=     256KiB time=00:00:02.00 bitrate=1048.8kbits/s speed=0.0317x elapsed=0:01:03.08    \nframe=  123 fps=1.9 q=31.7 size=     256KiB time=00:00:02.01 bitrate=1040.1kbits/s speed=0.0317x elapsed=0:01:03.60    \nframe=  124 fps=1.9 q=33.1 size=     256KiB time=00:00:02.03 bitrate=1031.6kbits/s speed=0.0317x elapsed=0:01:04.12    \nframe=  126 fps=1.9 q=34.4 size=     256KiB time=00:00:02.06 bitrate=1014.9kbits/s speed=0.032x elapsed=0:01:04.65    \nframe=  128 fps=2.0 q=32.9 size=     256KiB time=00:00:02.10 bitrate= 998.8kbits/s speed=0.0322x elapsed=0:01:05.16    \nframe=  129 fps=2.0 q=34.4 size=     256KiB time=00:00:02.11 bitrate= 990.9kbits/s speed=0.0322x elapsed=0:01:05.67    \nframe=  131 fps=2.0 q=34.3 size=     256KiB time=00:00:02.15 bitrate= 975.6kbits/s speed=0.0325x elapsed=0:01:06.19    \nframe=  132 fps=2.0 q=31.1 size=     256KiB time=00:00:02.16 bitrate= 968.1kbits/s speed=0.0325x elapsed=0:01:06.73    \nframe=  134 fps=2.0 q=34.4 size=     256KiB time=00:00:02.20 bitrate= 953.4kbits/s speed=0.0327x elapsed=0:01:07.25    \nframe=  136 fps=2.0 q=34.3 size=     256KiB time=00:00:02.23 bitrate= 939.2kbits/s speed=0.033x elapsed=0:01:07.77    \nframe=  137 fps=2.0 q=31.5 size=     256KiB time=00:00:02.25 bitrate= 932.2kbits/s speed=0.0329x elapsed=0:01:08.28    \nframe=  137 fps=2.0 q=31.5 size=     256KiB time=00:00:02.25 bitrate= 932.2kbits/s speed=0.0327x elapsed=0:01:08.82    \nframe=  138 fps=2.0 q=33.0 size=     256KiB time=00:00:02.26 bitrate= 925.4kbits/s speed=0.0327x elapsed=0:01:09.34    \nframe=  141 fps=2.0 q=34.2 size=     256KiB time=00:00:02.31 bitrate= 905.4kbits/s speed=0.0332x elapsed=0:01:09.86    \nframe=  142 fps=2.0 q=30.9 size=     256KiB time=00:00:02.33 bitrate= 898.9kbits/s speed=0.0332x elapsed=0:01:10.38    \nframe=  144 fps=2.0 q=34.2 size=     256KiB time=00:00:02.36 bitrate= 886.3kbits/s speed=0.0334x elapsed=0:01:10.90    \nframe=  145 fps=2.0 q=34.4 size=     256KiB time=00:00:02.38 bitrate= 880.1kbits/s speed=0.0334x elapsed=0:01:11.42    \nframe=  147 fps=2.0 q=32.8 size=     256KiB time=00:00:02.41 bitrate= 867.9kbits/s speed=0.0336x elapsed=0:01:11.94    \nframe=  147 fps=2.0 q=32.8 size=     256KiB time=00:00:02.41 bitrate= 867.9kbits/s speed=0.0334x elapsed=0:01:12.45    \nframe=  149 fps=2.0 q=34.3 size=     256KiB time=00:00:02.45 bitrate= 856.1kbits/s speed=0.0336x elapsed=0:01:12.97    \nframe=  151 fps=2.1 q=31.2 size=     256KiB time=00:00:02.48 bitrate= 844.6kbits/s speed=0.0338x elapsed=0:01:13.49    \nframe=  152 fps=2.1 q=32.9 size=     256KiB time=00:00:02.50 bitrate= 839.0kbits/s speed=0.0338x elapsed=0:01:14.01    \nframe=  154 fps=2.1 q=34.2 size=     256KiB time=00:00:02.53 bitrate= 828.0kbits/s speed=0.034x elapsed=0:01:14.51    \nframe=  155 fps=2.1 q=31.3 size=     256KiB time=00:00:02.55 bitrate= 822.6kbits/s speed=0.034x elapsed=0:01:15.04    \nframe=  157 fps=2.1 q=34.3 size=     256KiB time=00:00:02.58 bitrate= 811.9kbits/s speed=0.0342x elapsed=0:01:15.55    \nframe=  157 fps=2.1 q=34.3 size=     256KiB time=00:00:02.58 bitrate= 811.9kbits/s speed=0.034x elapsed=0:01:16.06    \nframe=  158 fps=2.1 q=31.6 size=     256KiB time=00:00:02.60 bitrate= 806.7kbits/s speed=0.0339x elapsed=0:01:16.58    \nframe=  161 fps=2.1 q=34.3 size=     256KiB time=00:00:02.65 bitrate= 791.5kbits/s speed=0.0344x elapsed=0:01:17.11    \nframe=  162 fps=2.1 q=30.8 size=     256KiB time=00:00:02.66 bitrate= 786.6kbits/s speed=0.0343x elapsed=0:01:17.65    \nframe=  162 fps=2.1 q=30.8 size=     256KiB time=00:00:02.66 bitrate= 786.6kbits/s speed=0.0341x elapsed=0:01:18.21    \nframe=  162 fps=2.1 q=30.8 size=     256KiB time=00:00:02.66 bitrate= 786.6kbits/s speed=0.0339x elapsed=0:01:18.73    \nframe=  162 fps=2.0 q=30.8 size=     256KiB time=00:00:02.66 bitrate= 786.6kbits/s speed=0.0337x elapsed=0:01:19.24    \nframe=  166 fps=2.1 q=31.5 size=     256KiB time=00:00:02.73 bitrate= 767.4kbits/s speed=0.0343x elapsed=0:01:19.76    \nframe=  166 fps=2.1 q=31.5 size=     256KiB time=00:00:02.73 bitrate= 767.4kbits/s speed=0.034x elapsed=0:01:20.28    \nframe=  167 fps=2.1 q=34.3 size=     256KiB time=00:00:02.75 bitrate= 762.7kbits/s speed=0.034x elapsed=0:01:20.82    \nframe=  169 fps=2.1 q=32.6 size=     256KiB time=00:00:02.78 bitrate= 753.6kbits/s speed=0.0342x elapsed=0:01:21.35    \nframe=  170 fps=2.1 q=34.4 size=     512KiB time=00:00:02.80 bitrate=1498.1kbits/s speed=0.0342x elapsed=0:01:21.88    \nframe=  171 fps=2.1 q=34.3 size=     512KiB time=00:00:02.81 bitrate=1489.2kbits/s speed=0.0342x elapsed=0:01:22.42    \nframe=  173 fps=2.1 q=31.6 size=     512KiB time=00:00:02.85 bitrate=1471.8kbits/s speed=0.0344x elapsed=0:01:22.95    \nframe=  174 fps=2.1 q=33.0 size=     512KiB time=00:00:02.86 bitrate=1463.3kbits/s speed=0.0343x elapsed=0:01:23.47    \nframe=  176 fps=2.1 q=34.1 size=     512KiB time=00:00:02.90 bitrate=1446.4kbits/s speed=0.0345x elapsed=0:01:24.00    \nframe=  178 fps=2.1 q=32.9 size=     512KiB time=00:00:02.93 bitrate=1430.0kbits/s speed=0.0347x elapsed=0:01:24.52    \nframe=  179 fps=2.1 q=34.2 size=     512KiB time=00:00:02.95 bitrate=1421.9kbits/s speed=0.0347x elapsed=0:01:25.04    \nframe=  181 fps=2.1 q=31.9 size=     512KiB time=00:00:02.98 bitrate=1406.0kbits/s speed=0.0349x elapsed=0:01:25.58    \nframe=  182 fps=2.1 q=32.8 size=     512KiB time=00:00:03.00 bitrate=1398.2kbits/s speed=0.0348x elapsed=0:01:26.10    \nframe=  184 fps=2.1 q=34.3 size=     512KiB time=00:00:03.03 bitrate=1382.9kbits/s speed=0.035x elapsed=0:01:26.62    \nframe=  185 fps=2.1 q=34.3 size=     512KiB time=00:00:03.05 bitrate=1375.3kbits/s speed=0.035x elapsed=0:01:27.16    \nframe=  187 fps=2.1 q=33.2 size=     512KiB time=00:00:03.08 bitrate=1360.4kbits/s speed=0.0352x elapsed=0:01:27.67    \nframe=  187 fps=2.1 q=33.2 size=     512KiB time=00:00:03.08 bitrate=1360.4kbits/s speed=0.035x elapsed=0:01:28.19    \nframe=  189 fps=2.1 q=34.2 size=     512KiB time=00:00:03.11 bitrate=1345.9kbits/s speed=0.0351x elapsed=0:01:28.71    \nframe=  190 fps=2.1 q=34.4 size=     512KiB time=00:00:03.13 bitrate=1338.7kbits/s speed=0.0351x elapsed=0:01:29.23    \nframe=  191 fps=2.1 q=31.9 size=     512KiB time=00:00:03.15 bitrate=1331.6kbits/s speed=0.0351x elapsed=0:01:29.75    \nframe=  192 fps=2.1 q=33.1 size=     512KiB time=00:00:03.16 bitrate=1324.6kbits/s speed=0.0351x elapsed=0:01:30.28    \nframe=  194 fps=2.1 q=31.9 size=     512KiB time=00:00:03.20 bitrate=1310.8kbits/s speed=0.0352x elapsed=0:01:30.79    \nframe=  195 fps=2.1 q=33.2 size=     512KiB time=00:00:03.21 bitrate=1304.0kbits/s speed=0.0352x elapsed=0:01:31.32    \nframe=  195 fps=2.1 q=33.2 size=     512KiB time=00:00:03.21 bitrate=1304.0kbits/s speed=0.035x elapsed=0:01:31.84    \nframe=  197 fps=2.1 q=34.4 size=     512KiB time=00:00:03.25 bitrate=1290.7kbits/s speed=0.0352x elapsed=0:01:32.36    \nframe=  199 fps=2.1 q=33.3 size=     512KiB time=00:00:03.28 bitrate=1277.6kbits/s speed=0.0353x elapsed=0:01:32.88    \nframe=  201 fps=2.2 q=34.5 size=     512KiB time=00:00:03.31 bitrate=1264.7kbits/s speed=0.0355x elapsed=0:01:33.39    \nframe=  203 fps=2.2 q=33.3 size=     512KiB time=00:00:03.35 bitrate=1252.1kbits/s speed=0.0357x elapsed=0:01:33.92    \nframe=  204 fps=2.2 q=34.6 size=     512KiB time=00:00:03.36 bitrate=1245.9kbits/s speed=0.0356x elapsed=0:01:34.44    \nframe=  206 fps=2.2 q=31.9 size=     512KiB time=00:00:03.40 bitrate=1233.7kbits/s speed=0.0358x elapsed=0:01:34.95    \nframe=  207 fps=2.2 q=33.2 size=     512KiB time=00:00:03.41 bitrate=1227.7kbits/s speed=0.0358x elapsed=0:01:35.47    \nframe=  209 fps=2.2 q=34.5 size=     512KiB time=00:00:03.45 bitrate=1215.8kbits/s speed=0.0359x elapsed=0:01:36.01    \nframe=  210 fps=2.2 q=31.6 size=     512KiB time=00:00:03.46 bitrate=1210.0kbits/s speed=0.0359x elapsed=0:01:36.53    \nframe=  213 fps=2.2 q=34.5 size=     512KiB time=00:00:03.51 bitrate=1192.8kbits/s speed=0.0362x elapsed=0:01:37.06    \nframe=  215 fps=2.2 q=33.5 size=     512KiB time=00:00:03.55 bitrate=1181.6kbits/s speed=0.0364x elapsed=0:01:37.60    \nframe=  215 fps=2.2 q=33.5 size=     512KiB time=00:00:03.55 bitrate=1181.6kbits/s speed=0.0362x elapsed=0:01:38.14    \nframe=  216 fps=2.2 q=34.4 size=     512KiB time=00:00:03.56 bitrate=1176.1kbits/s speed=0.0362x elapsed=0:01:38.65    \nframe=  218 fps=2.2 q=34.4 size=     512KiB time=00:00:03.60 bitrate=1165.2kbits/s speed=0.0363x elapsed=0:01:39.20    \nframe=  218 fps=2.2 q=34.4 size=     512KiB time=00:00:03.60 bitrate=1165.2kbits/s speed=0.0361x elapsed=0:01:39.73    \nframe=  219 fps=2.2 q=31.5 size=     512KiB time=00:00:03.61 bitrate=1159.8kbits/s speed=0.0361x elapsed=0:01:40.25    \nframe=  220 fps=2.2 q=33.3 size=     512KiB time=00:00:03.63 bitrate=1154.5kbits/s speed=0.036x elapsed=0:01:40.81    \nframe=  222 fps=2.2 q=34.3 size=     512KiB time=00:00:03.66 bitrate=1144.0kbits/s speed=0.0362x elapsed=0:01:41.35    \nframe=  224 fps=2.2 q=31.8 size=     512KiB time=00:00:03.70 bitrate=1133.7kbits/s speed=0.0363x elapsed=0:01:41.87    \nframe=  225 fps=2.2 q=33.1 size=     512KiB time=00:00:03.71 bitrate=1128.6kbits/s speed=0.0363x elapsed=0:01:42.41    \nframe=  227 fps=2.2 q=34.2 size=     512KiB time=00:00:03.75 bitrate=1118.6kbits/s speed=0.0364x elapsed=0:01:42.94    \nframe=  228 fps=2.2 q=31.8 size=     512KiB time=00:00:03.76 bitrate=1113.6kbits/s speed=0.0364x elapsed=0:01:43.45    \nframe=  230 fps=2.2 q=34.4 size=     512KiB time=00:00:03.80 bitrate=1103.9kbits/s speed=0.0365x elapsed=0:01:43.97    \nframe=  232 fps=2.2 q=31.8 size=     512KiB time=00:00:03.83 bitrate=1094.3kbits/s speed=0.0367x elapsed=0:01:44.51    \nframe=  232 fps=2.2 q=31.8 size=     512KiB time=00:00:03.83 bitrate=1094.3kbits/s speed=0.0365x elapsed=0:01:45.03    \nframe=  233 fps=2.2 q=33.2 size=     512KiB time=00:00:03.85 bitrate=1089.5kbits/s speed=0.0365x elapsed=0:01:45.57    \nframe=  236 fps=2.2 q=34.3 size=     512KiB time=00:00:03.90 bitrate=1075.6kbits/s speed=0.0368x elapsed=0:01:46.09    \nframe=  237 fps=2.2 q=32.1 size=     512KiB time=00:00:03.91 bitrate=1071.0kbits/s speed=0.0367x elapsed=0:01:46.61    \nframe=  237 fps=2.2 q=32.1 size=     512KiB time=00:00:03.91 bitrate=1071.0kbits/s speed=0.0366x elapsed=0:01:47.14    \nframe=  237 fps=2.2 q=32.1 size=     512KiB time=00:00:03.91 bitrate=1071.0kbits/s speed=0.0364x elapsed=0:01:47.67    \nframe=  240 fps=2.2 q=34.4 size=     512KiB time=00:00:03.96 bitrate=1057.5kbits/s speed=0.0367x elapsed=0:01:48.19    \nframe=  241 fps=2.2 q=34.5 size=     512KiB time=00:00:03.98 bitrate=1053.1kbits/s speed=0.0366x elapsed=0:01:48.72    \nframe=  242 fps=2.2 q=32.1 size=     512KiB time=00:00:04.00 bitrate=1048.7kbits/s speed=0.0366x elapsed=0:01:49.25    \nframe=  243 fps=2.2 q=33.2 size=     512KiB time=00:00:04.01 bitrate=1044.3kbits/s speed=0.0366x elapsed=0:01:49.77    \nframe=  245 fps=2.2 q=32.3 size=     512KiB time=00:00:04.05 bitrate=1035.7kbits/s speed=0.0367x elapsed=0:01:50.30    \nframe=  245 fps=2.2 q=32.3 size=     512KiB time=00:00:04.05 bitrate=1035.7kbits/s speed=0.0365x elapsed=0:01:50.82    \nframe=  246 fps=2.2 q=33.6 size=     512KiB time=00:00:04.06 bitrate=1031.5kbits/s speed=0.0365x elapsed=0:01:51.34    \nframe=  249 fps=2.2 q=34.6 size=     512KiB time=00:00:04.11 bitrate=1018.9kbits/s speed=0.0368x elapsed=0:01:51.86    \nframe=  250 fps=2.2 q=29.5 size=     512KiB time=00:00:04.13 bitrate=1014.8kbits/s speed=0.0368x elapsed=0:01:52.41    \nframe=  251 fps=2.2 q=34.6 size=     512KiB time=00:00:04.15 bitrate=1010.8kbits/s speed=0.0367x elapsed=0:01:52.93    \nframe=  254 fps=2.2 q=32.4 size=     512KiB time=00:00:04.20 bitrate= 998.7kbits/s speed=0.037x elapsed=0:01:53.45    \nframe=  255 fps=2.2 q=33.5 size=     768KiB time=00:00:04.21 bitrate=1492.1kbits/s speed=0.037x elapsed=0:01:53.97    \nframe=  256 fps=2.2 q=34.7 size=     768KiB time=00:00:04.23 bitrate=1486.3kbits/s speed=0.037x elapsed=0:01:54.48    \nframe=  258 fps=2.2 q=34.6 size=     768KiB time=00:00:04.26 bitrate=1474.6kbits/s speed=0.0371x elapsed=0:01:55.02    \nframe=  260 fps=2.3 q=33.4 size=     768KiB time=00:00:04.30 bitrate=1463.2kbits/s speed=0.0372x elapsed=0:01:55.54    \nframe=  261 fps=2.2 q=33.7 size=     768KiB time=00:00:04.31 bitrate=1457.6kbits/s speed=0.0372x elapsed=0:01:56.04    \nframe=  264 fps=2.3 q=31.5 size=     768KiB time=00:00:04.36 bitrate=1440.9kbits/s speed=0.0375x elapsed=0:01:56.56    \nframe=  264 fps=2.3 q=31.5 size=     768KiB time=00:00:04.36 bitrate=1440.9kbits/s speed=0.0373x elapsed=0:01:57.10    \nframe=  267 fps=2.3 q=33.8 size=     768KiB time=00:00:04.41 bitrate=1424.6kbits/s speed=0.0376x elapsed=0:01:57.61    \nframe=  268 fps=2.3 q=31.5 size=     768KiB time=00:00:04.43 bitrate=1419.2kbits/s speed=0.0375x elapsed=0:01:58.13    \nframe=  270 fps=2.3 q=33.7 size=     768KiB time=00:00:04.46 bitrate=1408.6kbits/s speed=0.0376x elapsed=0:01:58.64    \nframe=  273 fps=2.3 q=31.5 size=     768KiB time=00:00:04.51 bitrate=1393.0kbits/s speed=0.0379x elapsed=0:01:59.15    \nframe=  273 fps=2.3 q=31.5 size=     768KiB time=00:00:04.51 bitrate=1393.0kbits/s speed=0.0377x elapsed=0:01:59.67    \nframe=  274 fps=2.3 q=32.6 size=     768KiB time=00:00:04.53 bitrate=1387.9kbits/s speed=0.0377x elapsed=0:02:00.21    \nframe=  277 fps=2.3 q=34.6 size=     768KiB time=00:00:04.58 bitrate=1372.8kbits/s speed=0.038x elapsed=0:02:00.72    \nframe=  278 fps=2.3 q=32.2 size=     768KiB time=00:00:04.60 bitrate=1367.8kbits/s speed=0.0379x elapsed=0:02:01.25    \nframe=  281 fps=2.3 q=34.7 size=     768KiB time=00:00:04.65 bitrate=1353.1kbits/s speed=0.0382x elapsed=0:02:01.83    \nframe=  283 fps=2.3 q=33.2 size=     768KiB time=00:00:04.68 bitrate=1343.4kbits/s speed=0.0383x elapsed=0:02:02.35    \nframe=  286 fps=2.3 q=34.5 size=     768KiB time=00:00:04.73 bitrate=1329.3kbits/s speed=0.0385x elapsed=0:02:02.86    \nframe=  287 fps=2.3 q=31.0 size=     768KiB time=00:00:04.75 bitrate=1324.6kbits/s speed=0.0385x elapsed=0:02:03.38    \nframe=  290 fps=2.3 q=34.4 size=     768KiB time=00:00:04.80 bitrate=1310.8kbits/s speed=0.0387x elapsed=0:02:03.92    \nframe=  291 fps=2.3 q=33.5 size=     768KiB time=00:00:04.81 bitrate=1306.3kbits/s speed=0.0387x elapsed=0:02:04.49    \nframe=  292 fps=2.3 q=32.1 size=     768KiB time=00:00:04.83 bitrate=1301.8kbits/s speed=0.0387x elapsed=0:02:05.02    \nframe=  293 fps=2.3 q=33.4 size=     768KiB time=00:00:04.85 bitrate=1297.3kbits/s speed=0.0386x elapsed=0:02:05.54    \nframe=  294 fps=2.3 q=33.5 size=     768KiB time=00:00:04.86 bitrate=1292.8kbits/s speed=0.0386x elapsed=0:02:06.06    \nframe=  297 fps=2.3 q=32.3 size=     768KiB time=00:00:04.91 bitrate=1279.7kbits/s speed=0.0388x elapsed=0:02:06.57    \nframe=  298 fps=2.3 q=33.2 size=     768KiB time=00:00:04.93 bitrate=1275.4kbits/s speed=0.0388x elapsed=0:02:07.10    \n[mp4 @ 0000021cd89e1100] Starting second pass: moving the moov atom to the beginning of the file\n[out#0/mp4 @ 0000021cd89e1000] video:908KiB audio:0KiB subtitle:0KiB other streams:0KiB global headers:2KiB muxing overhead: 0.754180%\nframe=  300 fps=2.4 q=34.4 Lsize=     915KiB time=00:00:04.96 bitrate=1508.4kbits/s speed=0.0391x elapsed=0:02:07.16    \nx265 [info]: frame I:      2, Avg QP:36.64  kb/s: 1507.92 \nx265 [info]: frame P:     71, Avg QP:31.90  kb/s: 2019.35 \nx265 [info]: frame B:    227, Avg QP:33.96  kb/s: 1318.01 \nx265 [info]: Weighted P-Frames: Y:12.7% UV:12.7%\n\nencoded 300 frames in 126.92s (2.36 fps), 1485.26 kb/s, Avg QP:33.49\n",
  "seconds": 127.4107415676117,
  "probe_out": {}
}